<?xml version="1.0" encoding="iso-8859-1"?>
<!-- Generator: Adobe Illustrator 25.2.3, SVG Export Plug-In . SVG Version: 6.00 Build 0)  -->
<svg version="1.1" baseProfile="basic" id="win10" xmlns="http://www.w3.org/2000/svg" xmlns:xlink="http://www.w3.org/1999/xlink"
	 x="0px" y="0px" viewBox="0 0 16 16" xml:space="preserve">
<path d="M13.261,3.879l-4.5-2.649c-0.469-0.276-1.053-0.276-1.521,0L2.74,3.879C2.283,4.147,2,4.643,2,5.172v5.834
	c0,0.549,0.3,1.054,0.782,1.317l1.473,0.803c0.227,0.124,0.473,0.185,0.719,0.185c0.264,0,0.526-0.071,0.765-0.211
	c0.46-0.273,0.734-0.755,0.734-1.291V5.465h-1v6.344c0,0.257-0.171,0.387-0.245,0.43c-0.073,0.043-0.269,0.132-0.494,0.009
	l-1.473-0.803C3.1,11.357,3,11.189,3,11.006V5.172c0-0.176,0.095-0.341,0.247-0.431l4.5-2.649C7.903,2,8.097,2,8.253,2.091
	l4.501,2.65C12.905,4.831,13,4.996,13,5.172v5.838c0,0.18-0.1,0.35-0.26,0.44l-4.5,2.45c-0.15,0.08-0.33,0.08-0.48,0l-0.88-0.48
	c-0.17,0.21-0.38,0.39-0.63,0.54c-0.08,0.05-0.16,0.09-0.24,0.12l1.27,0.7C7.51,14.9,7.75,14.96,8,14.96s0.49-0.06,0.72-0.18
	l4.5-2.46C13.7,12.06,14,11.56,14,11.01V5.172C14,4.643,13.717,4.147,13.261,3.879z"/>
<path d="M9.452,10.825c-2.134,0-2.582-1.074-2.582-1.976h1c0,0.585,0.269,0.976,1.582,0.976C11,9.825,11,9.333,11,9.171
	c0-0.335-0.239-0.453-1.279-0.627L9.422,8.492C9.353,8.479,9.266,8.469,9.168,8.456c-0.681-0.087-2.098-0.27-2.098-1.5
	c0-1.086,0.802-1.637,2.382-1.637c1.758,0,2.385,0.98,2.385,1.897h-1c0-0.596-0.466-0.897-1.385-0.897
	C8.07,6.32,8.07,6.734,8.07,6.957c0,0.308,0.589,0.426,1.225,0.508C9.412,7.479,9.517,7.493,9.6,7.508l0.287,0.049
	C10.778,7.708,12,7.913,12,9.171C12,9.925,11.558,10.825,9.452,10.825z"/>
</svg>